<svg id="Layer_1" data-name="Layer 1" xmlns="http://www.w3.org/2000/svg" viewBox="0 0 4810 673"><defs><style>.cls-1,.cls-4{isolation:isolate;}.cls-1{font-size:250px;font-family:Montserrat-Bold, Montserrat;font-weight:700;}.cls-1,.cls-12,.cls-4{fill:#fff;}.cls-2{letter-spacing:-0.01em;}.cls-3{letter-spacing:-0.01em;}.cls-4{font-size:175px;font-family:Montserrat-Light, Montserrat;}.cls-5{letter-spacing:-0.02em;}.cls-6{letter-spacing:-0.01em;}.cls-7{letter-spacing:-0.05em;}.cls-8{letter-spacing:-0.01em;}.cls-9{letter-spacing:-0.03em;}.cls-10{letter-spacing:-0.02em;}.cls-11{fill:none;stroke:#fff;stroke-miterlimit:10;stroke-width:10px;}</style></defs><title>Artboard 1</title><text class="cls-1" transform="translate(743.5 311)">KH<tspan class="cls-2" x="387" y="0">O</tspan><tspan x="595.5" y="0">A </tspan><tspan class="cls-3" x="857.74" y="0">C</tspan><tspan x="1037.24" y="0">ÔNG NGHỆ THÔNG TIN</tspan></text><text class="cls-4" transform="translate(694.75 519.75)">TRƯỜNG <tspan class="cls-5" x="833.16" y="0">C</tspan><tspan class="cls-6" x="955.14" y="0">A</tspan><tspan x="1076.76" y="0">O </tspan><tspan class="cls-6" x="1268.38" y="0">Đ</tspan><tspan x="1411.71" y="0">ẲNG </tspan><tspan class="cls-7" x="1857.78" y="0">K</tspan><tspan x="1972.75" y="0">Ỹ TH</tspan><tspan class="cls-8" x="2368.07" y="0">U</tspan><tspan class="cls-9" x="2504.22" y="0">Ậ</tspan><tspan x="2621.47" y="0">T </tspan><tspan class="cls-10" x="2764.97" y="0">C</tspan><tspan class="cls-6" x="2886.94" y="0">A</tspan><tspan x="3008.57" y="0">O THẮNG</tspan></text><circle class="cls-11" cx="443" cy="316.5" r="228"/><path class="cls-12" d="M522.86,442.94c-.14.21-.36.41-.4.63a9.89,9.89,0,0,0,0,1.39H519.6v2.77h-2l-.18-.73-1.52,1.18,1,.14v2.13h-2.34l-.07-1.45h-.16l-.13,1.53h-3.74c1.21.33,1,1.15.85,2l-2.3.39-.17-1.59h-.19l-.11,1.73-2.25.15-.25-1h-.2l-.29,1.26-2.34-.39c-.52.09-1.11.23-1.7.29a33.82,33.82,0,0,1-3.68.28,47.56,47.56,0,0,1-6.87-.3,60.33,60.33,0,0,1-10.06-2.2,58.2,58.2,0,0,1-8.64-4.19,30.79,30.79,0,0,1-12-12.21,65.18,65.18,0,0,1-3.8-8.58,52,52,0,0,1-2.37-7.11c-.83-3.5-1.53-7-2-10.62-2-14.73-1-29.56-1.09-44.34-.14-28.23,0-56.47,0-84.7,0-3.1-.78-3.87-3.87-3.89-2.2,0-4.41,0-6.6-.14-2.37-.15-2.66-1-2.66-2.62q.06-29.38,0-58.75c0-2.05.57-2.59,2.58-2.65,2.72-.08,5.45-.21,8.17-.36,1.77-.1,2.34-.74,2.34-2.54q0-16.71,0-33.42c0-.41,0-.82,0-1.22,0-2.84.62-3.45,3.42-3.45H521c2.82,0,3.21.39,3.21,3.27,0,11.26,0,22.52,0,33.78a5.4,5.4,0,0,0,.68,2.73c.74,1.18,2.15,1.18,3.4,1.21,3.71.09,7.42,0,11.13.17,3.18.12,4,.83,4,4q0,28.09,0,56.18c0,1.48-.24,2.88-1.79,3.54a5.42,5.42,0,0,1-1.9.32c-4.15.14-8.3.25-12.45.38-2.23.07-3.06.91-3.06,3.15q0,52.88,0,105.76c0,2.37,1.1,3.48,3.71,3.73l.13,1.44h2.8c-.07.92.45,1.85-.23,2.51l.49,2.51.11-2.2c2.31-.54,2.59-.23,2.31,2.5l-2.11.1v.21h2.14V398l-1.08.16,0,.22,1.08.28v2.55h2.76v2.37l-1.75.17v.14l1.75.11v2.13l-1.24.18,0,.23,1.26.16c0,.86.38,1.76-.17,2.47a11.31,11.31,0,0,1,.22,2c0,.28-.49.53-.74.79,1.14.87,1.17,2.19.18,2.65.22.51.65,1,.56,1.43-.28,1.37.23,2.73,0,4.15l-1.28.17v.13l1.27.12V423l-2.13.1v.33l2.13.17v1.93h-2.77l.12,2.76-1.35.21,1.27.26v2.37l-2.42.14c-.73.94.54,2.4-.88,2.93.88.63.23,1.6.46,2.63l-2.85-.32v3l-2.57.12v2.62l-2.55.78Z"/><path class="cls-12" d="M348.26,402.14l-26.93-59.75,109.89-65.47c.34,2.58.09,141.08-.26,143.32h-1.89c-.6-.76.34-2-.9-2.85v2.85h-2.11v-2.53c-.4.15-.43.24-.7,2.51h-2.11l-.13-2.57-.34,0v2.57h-2.22v-2.55h-.38l-.14,2.56h-2.35v-2.58h-.27v2.56h-2.48V417.7h-.39l-.17,2.56h-2.15V417.7h-.39l-.15,2.56h-2.34v-2.58h-.27v2.56h-2.47l-.16-2.58-.35,0v2.57h-2.36l-.14-2.56h-.32v2.52H401v-2.27h-.23v2.27h-2.24l-.18-2.58-.36,0v2.54h-2.43v-2.52l-.36,0-.16,2.55h-2.31v-2.55l-.28,0v2.55H390l-.11-2.51-.33,0-.18,2.55h-2.16V417.7l-.36,0-.17,2.55h-2.3v-2.55l-.27,0v2.55h-2.52v-2.45h-.21v2.47H379v-2.53l-.38,0-.18,2.55h-2.15v-2.52l-.38,0-.18,2.55h-2.15l-.12-2.58-.34,0v2.56h-2.46V417.7h-.39l-.14,2.55h-2.34v-2.57l-.38,0-.17,2.59H365v-2.53l-.38,0-.18,2.55h-2.1c-.18-2-.47-3.95-.5-5.91-.07-5.06,0-10.12,0-15.18a6,6,0,0,0-.91-3.32c-1.21-2-2.19-4.11-3.28-6.16a5.51,5.51,0,0,0-.56-.71Z"/><path class="cls-12" d="M336.74,278.74,345.8,270c1.44,1.52,2.9,2.94,4.22,4.48,1.71,2,1.68,2.11,4,.89,2.69-1.42,2.55-.9,1.67-4-.44-1.56-.79-3.14-1.19-4.71-.21-.83.33-1.11,1-1.26,3.7-.85,7.41-1.68,11.2-2.54l2,8.29c1.4.1,2.74.16,4.07.3.78.08,1.09-.29,1.29-1,.6-2.05,1.23-4.1,1.84-6.15.31-1,1.16-.82,1.81-.66,1.77.42,3.53.9,5.25,1.48a38.32,38.32,0,0,1,4.12,1.7c.77.36.88,1,.63,1.87-.64,2.13-1.19,4.28-1.81,6.5l4.12,2.63c1.7-1.54,3.39-3,5.06-4.58,1.06-1,1.73-1,2.68,0q3.13,3.42,6.18,6.92a1.36,1.36,0,0,1-.18,2c-1.63,1.67-3.22,3.38-4.83,5.07l1.91,3.45-10.82,5.93c-3.1-6.64-8.13-11.09-15.36-12.74a20.51,20.51,0,0,0-14.07,1.75c-5.91,2.94-9.94,7.43-11.66,13.89a21.52,21.52,0,0,0,3,17.89c-3.33,1.9-6.56,3.76-9.82,5.56a1.11,1.11,0,0,1-1-.36c-.65-1-1.13-2.15-1.8-3.17a1.37,1.37,0,0,0-1.16-.45c-2.57.53-5.13,1.14-7.8,1.74l-2.89-12.46,8.56-1.77c.11-1.54.25-3,.28-4.53,0-.25-.42-.64-.73-.73-2.28-.71-4.57-1.37-6.86-2-.65-.19-1-.42-.73-1.28,1-2.84,2-5.72,3-8.59.62-1.87,1.47-2.28,3.4-1.7,1.66.49,3.35.91,5,1.32.28.07.76,0,.89-.14a24.42,24.42,0,0,0,2-3.17,1.61,1.61,0,0,0-.39-1.33C340.18,282.53,338.49,280.69,336.74,278.74Z"/><path class="cls-12" d="M536.63,392.45h-2.68V390h2.68Z"/><path class="cls-12" d="M536.55,395.27h-2.67a8.24,8.24,0,0,1,.46-2.5c.14-.28,1.65-.3,1.75-.07A9.61,9.61,0,0,1,536.55,395.27Z"/><path class="cls-12" d="M384,428.34h-2.31v-2.27H384Z"/><path class="cls-12" d="M386.74,426.07v2.23h-2.31v-2.23Z"/><path class="cls-12" d="M395.68,426h2.25v2.31h-2.25Z"/><path class="cls-12" d="M367.78,428.31v-2.25H370v2.25Z"/><path class="cls-12" d="M395.46,431.68h2.68a6.24,6.24,0,0,1-.43,2.3,1.86,1.86,0,0,1-1.76,0A6.21,6.21,0,0,1,395.46,431.68Z"/><path class="cls-12" d="M395,431.69c.36,2.48.21,2.65-2.21,2.31v-2.31Z"/><path class="cls-12" d="M409,431.7V434h-2.33v-2.3Z"/><path class="cls-12" d="M403.73,428.31V426h2.32v2.26Z"/><path class="cls-12" d="M534,434v-2.37h2.36V434Z"/><path class="cls-12" d="M406.62,426h2.33v2.28h-2.33Z"/><path class="cls-12" d="M411.72,426.07v2.23h-2.31v-2.23Z"/><path class="cls-12" d="M370,431.7c.43,2.41.09,2.76-2.22,2.23V431.7Z"/><path class="cls-12" d="M409.4,434v-2.31h2.16C412.21,434,411.91,434.33,409.4,434Z"/><path class="cls-12" d="M417.26,428.33H415v-2.26h2.25Z"/><path class="cls-12" d="M420,428.36h-2.24V426H420Z"/><path class="cls-12" d="M420,431.67c.28,2.56.12,2.72-2.25,2.29v-2.29Z"/><path class="cls-12" d="M531.34,390h2.37v2.43h-2.37Z"/><path class="cls-12" d="M390,434v-2.36h2.33V434Z"/><path class="cls-12" d="M384.43,434v-2.29h2.18C387.13,434.06,386.81,434.4,384.43,434Z"/><path class="cls-12" d="M378.84,431.68h2.74a6,6,0,0,1-.51,2.29,1.85,1.85,0,0,1-1.78,0A6.16,6.16,0,0,1,378.84,431.68Z"/><path class="cls-12" d="M534,426h2.3v2.3H534Z"/><path class="cls-12" d="M373.19,431.71a6.11,6.11,0,0,1-.51,2.28,1.83,1.83,0,0,1-1.76,0,5.7,5.7,0,0,1-.43-2.26Z"/><path class="cls-12" d="M531.3,434v-2.3h2.19C534.11,434,533.76,434.38,531.3,434Z"/><path class="cls-12" d="M417.26,434.06H415v-2.39h2.23Z"/><path class="cls-12" d="M392.73,428.33v-2.25H395v2.25Z"/><path class="cls-12" d="M390.05,426h2.23v2.31h-2.23Z"/><path class="cls-12" d="M406.25,431.72a5.67,5.67,0,0,1-.47,2.26,1.83,1.83,0,0,1-1.78,0,5.64,5.64,0,0,1-.42-2.25Z"/><path class="cls-12" d="M522.37,445.42v2.36h-2.31v-2.36Z"/><path class="cls-12" d="M541.79,390v2.43H539.4V390Z"/><path class="cls-12" d="M370.69,426H373v2.27h-2.29Z"/><path class="cls-12" d="M379,426h2.36v2.26H379Z"/><path class="cls-12" d="M381.61,434c0-.42-.05-.82-.05-1.21s0-.71.06-1.11H384V434Z"/><path class="cls-12" d="M370.09,434.42v2.27H367.9C367.35,434.38,367.75,434,370.09,434.42Z"/><path class="cls-12" d="M406.07,436.7h-2.32v-2.25C405.94,433.88,406.21,434.12,406.07,436.7Z"/><path class="cls-12" d="M395.63,436.69v-2.21c2.21-.67,2.62-.28,2.3,2.21Z"/><path class="cls-12" d="M541.72,417.68v2.55h-2C539.2,417.59,539.38,417.37,541.72,417.68Z"/><path class="cls-12" d="M392.8,436.69c-.31-2.49-.1-2.71,2.24-2.28v2.28Z"/><path class="cls-12" d="M390,436.67v-2.29c2.37-.36,2.54-.19,2.23,2.29Z"/><path class="cls-12" d="M536.36,398h-2.22c-.5-2.39-.33-2.57,2.22-2.31Z"/><path class="cls-12" d="M379,436.66a4.3,4.3,0,0,1-.06-.48c0-.56,0-1.13,0-1.67,2.16-.73,2.66-.3,2.45,2.15Z"/><path class="cls-12" d="M386.73,434.37v2.3h-2.22C384.1,434.29,384.31,434.06,386.73,434.37Z"/><path class="cls-12" d="M539.61,395.25v-2.58h2.06v2.58Z"/><path class="cls-12" d="M411.71,434.4v2.28h-2.18C408.91,434.44,409.3,434,411.71,434.4Z"/><path class="cls-12" d="M381.64,436.75v-2.31c2.33-.53,2.63-.24,2.29,2.25l-1.15.06Z"/><path class="cls-12" d="M372.95,436.69a3.79,3.79,0,0,1-.45.06h-1.8c0-.79,0-1.53,0-2.28C372.88,433.82,373.29,434.21,372.95,436.69Z"/><path class="cls-12" d="M536.37,428.8v2.31h-2.24C533.59,428.73,533.86,428.44,536.37,428.8Z"/><path class="cls-12" d="M533.62,436.71h-2.31v-2.29C533.61,434,533.81,434.15,533.62,436.71Z"/><path class="cls-12" d="M420,434.41v2.27h-2.19C417.25,434.42,417.65,434,420,434.41Z"/><path class="cls-12" d="M415,434.33c2.46-.19,2.51-.14,2.26,2.34H415Z"/><path class="cls-12" d="M408.9,436.7h-2.29v-2.25C408.93,433.9,409.24,434.19,408.9,436.7Z"/><path class="cls-12" d="M544.42,395.29h-2c-.47-2.52-.24-2.85,2-2.6Z"/><path class="cls-12" d="M539,392.69v2.56h-2C536.57,392.78,536.83,392.44,539,392.69Z"/><path class="cls-12" d="M539.24,420.26h-2.49a12.71,12.71,0,0,1,.52-2.52c.08-.2,1.35-.23,1.4-.09A15.52,15.52,0,0,1,539.24,420.26Z"/><path class="cls-12" d="M533.89,436.66c.43-.86-.77-2.22,1-2.39.67-.06,1.62-.36,1.55,1S536.1,436.85,533.89,436.66Z"/><path class="cls-12" d="M523,445.37h2.23c.36,1.85-.28,2.55-2.23,2.4Z"/><path class="cls-12" d="M381.63,445v-2.06H384V445Z"/><path class="cls-12" d="M386.75,442.93v2h-2.31v-2Z"/><path class="cls-12" d="M390,444.95v-2h2.28v2Z"/><path class="cls-12" d="M392.78,442.9H395V445h-2.25Z"/><path class="cls-12" d="M397.9,445h-2.22v-2C397.91,442.37,398.28,442.68,397.9,445Z"/><path class="cls-12" d="M539,392.48h-2.13v-2.43H539Z"/><path class="cls-12" d="M542.3,392.44V390h2.13v2.42Z"/><path class="cls-12" d="M536.92,395.66H539V398h-2.07Z"/><path class="cls-12" d="M539.6,395.66h2.08V398H539.6Z"/><path class="cls-12" d="M403.74,445V443c2.22-.63,2.53-.38,2.3,1.94Z"/><path class="cls-12" d="M536.41,398.65v2c-2.24.69-2.59.4-2.36-2Z"/><path class="cls-12" d="M406.6,445V442.9h2.33V445Z"/><path class="cls-12" d="M409.4,444.95v-2h2.29v2Z"/><path class="cls-12" d="M417.31,442.91v2H415v-2Z"/><path class="cls-12" d="M539,403.62h-1.92c-.62-2.31-.38-2.62,1.92-2.33Z"/><path class="cls-12" d="M541.71,401.16v2.41h-2.09v-2.3Z"/><path class="cls-12" d="M544.43,401.3v2.27h-2V401.3Z"/><path class="cls-12" d="M417.76,442.86H420V445h-2.24Z"/><path class="cls-12" d="M522.82,443l1.67-.17c.71-.07.93.29.88.94,0,.36,0,.73,0,1.19H523c0-.66-.06-1.33-.09-2Z"/><path class="cls-12" d="M528,442.91v2h-2.26v-2Z"/><path class="cls-12" d="M536.75,406.69h2.41a8.75,8.75,0,0,1-.42,2.33c-.1.22-1.42.23-1.55,0A8.1,8.1,0,0,1,536.75,406.69Z"/><path class="cls-12" d="M541.72,406.73V409c-2.18.47-2.36.27-2.08-2.24Z"/><path class="cls-12" d="M367.19,426.05v2.27h-2.14v-2.27Z"/><path class="cls-12" d="M381.63,442.32v-2.07h2.26C384.33,442.52,384.06,442.77,381.63,442.32Z"/><path class="cls-12" d="M539.57,411.7v-2.32l2.1-.11v2.43Z"/><path class="cls-12" d="M536.7,415h2.43a9,9,0,0,1-.35,2.33c-.09.21-1.4.26-1.52,0A9.12,9.12,0,0,1,536.7,415Z"/><path class="cls-12" d="M541.67,417.43c-2.27.2-2.27.2-2.06-2.36h2.06Z"/><path class="cls-12" d="M539,420.68V423H537v-2.3Z"/><path class="cls-12" d="M541.68,423h-2.06v-2.34h2.06Z"/><path class="cls-12" d="M367.81,420.79h2.24v2.15h-2.24Z"/><path class="cls-12" d="M381.38,423H379v-2.16h2.34Z"/><path class="cls-12" d="M384,423h-2.3v-2.12H384Z"/><path class="cls-12" d="M386.73,420.84v2.1h-2.29v-2.1Z"/><path class="cls-12" d="M390,422.94v-2.1h2.27v2.1Z"/><path class="cls-12" d="M395,423h-2.28v-2.14H395Z"/><path class="cls-12" d="M398,423h-2.31v-2.14H398Z"/><path class="cls-12" d="M406,423h-2.29v-2.13H406Z"/><path class="cls-12" d="M408.93,423h-2.3v-2.12h2.3Z"/><path class="cls-12" d="M411.68,423h-2.27v-2.14h2.27Z"/><path class="cls-12" d="M417.29,420.82V423H415v-2.14Z"/><path class="cls-12" d="M420,420.87V423h-2.26v-2.1Z"/><path class="cls-12" d="M364.45,426v2.26h-2.11V426Z"/><path class="cls-12" d="M373.52,428.32v-2.27h2.15v2.27Z"/><path class="cls-12" d="M378.39,428.33h-2.06v-2.27h2.06Z"/><path class="cls-12" d="M389.43,426.07v2.22h-2.1v-2.22Z"/><path class="cls-12" d="M400.63,428.34h-2.09v-2.27h2.09Z"/><path class="cls-12" d="M403.13,426.07v2.25h-2.06v-2.25Z"/><path class="cls-12" d="M412.28,428.32V426h2.07v2.28Z"/><path class="cls-12" d="M420.64,426h2v2.27h-2Z"/><path class="cls-12" d="M425.41,426.07v2.24h-2.13v-2.24Z"/><path class="cls-12" d="M428.12,426.06v2.25h-2v-2.25Z"/><path class="cls-12" d="M431,426.09v2.22h-2v-2.22Z"/><path class="cls-12" d="M539.07,428.35h-2c-.65-2.22-.37-2.59,2-2.33v2.33Z"/><path class="cls-12" d="M367.78,431.12v-2.21h2.28v2.21Z"/><path class="cls-12" d="M373,431.14h-2.32v-2.22H373Z"/><path class="cls-12" d="M381.43,429v2.14H379V429Z"/><path class="cls-12" d="M381.63,431.12v-2.18H384v2.18Z"/><path class="cls-12" d="M386.72,431.13h-2.28v-2.19h2.28Z"/><path class="cls-12" d="M390,428.89h2.25v2.24H390Z"/><path class="cls-12" d="M395.07,428.92v2.2h-2.28v-2.2Z"/><path class="cls-12" d="M398,428.9v2.21h-2.34V428.9Z"/><path class="cls-12" d="M406.07,428.9v2.21h-2.33V428.9Z"/><path class="cls-12" d="M409,428.93v2.2h-2.32v-2.2Z"/><path class="cls-12" d="M409.44,428.88h2.23v2.23h-2.23Z"/><path class="cls-12" d="M415,428.91h2.25v2.19H415Z"/><path class="cls-12" d="M373,423h-2.3v-2.14H373Z"/><path class="cls-12" d="M364.42,434.07h-2.07v-2.38h2.07Z"/><path class="cls-12" d="M365,434v-2.32h2.14V434Z"/><path class="cls-12" d="M375.7,434.08h-2.12V431.7h2.12Z"/><path class="cls-12" d="M378.41,434.05h-2.1v-2.38h2.1Z"/><path class="cls-12" d="M389.43,431.69V434h-2.1v-2.34Z"/><path class="cls-12" d="M398.51,434v-2.33h2.14V434Z"/><path class="cls-12" d="M401.05,431.65h2.07V434h-2.07Z"/><path class="cls-12" d="M412.27,434v-2.36h2.11V434Z"/><path class="cls-12" d="M420.66,431.67h1.91c.6,2.27.38,2.55-1.91,2.39Z"/><path class="cls-12" d="M425.38,434.05h-2.13v-2.37h2.13Z"/><path class="cls-12" d="M428.11,431.69v2.37h-2v-2.37Z"/><path class="cls-12" d="M429,434v-2.31h1.94C431.54,434,431.23,434.35,429,434Z"/><path class="cls-12" d="M362.34,434.29h2.05v2.4h-2.05Z"/><path class="cls-12" d="M365.05,436.66v-2.33h2.09v2.33Z"/><path class="cls-12" d="M375.68,436.71h-2.12v-2.36h2.12Z"/><path class="cls-12" d="M378.39,434.34v2.34h-2.07v-2.34Z"/><path class="cls-12" d="M389.39,436.71h-2.07v-2.36h2.07Z"/><path class="cls-12" d="M398.58,434.33h2.09v2.33h-2.09Z"/><path class="cls-12" d="M401.06,434.31h2.06v2.36h-2.06Z"/><path class="cls-12" d="M417.73,428.88H420v2.22h-2.26Z"/><path class="cls-12" d="M414.36,436.71h-2v-2.35h2Z"/><path class="cls-12" d="M425.39,434.34v2.35h-2.13v-2.35Z"/><path class="cls-12" d="M531.31,437.29h2.31v2.14h-2.31Z"/><path class="cls-12" d="M370.23,440.26c-.12.74,0,1.6-.4,2a1.77,1.77,0,0,1-1.77,0c-.4-.41-.32-1.28-.47-2.07Z"/><path class="cls-12" d="M370.42,440.23h2.7c-.08.72.06,1.58-.31,2a1.78,1.78,0,0,1-1.78.08C370.6,442,370.63,441.08,370.42,440.23Z"/><path class="cls-12" d="M378.81,440.22h2.71c-.1.74,0,1.66-.34,2a1.9,1.9,0,0,1-1.89.06C378.88,442,379,441,378.81,440.22Z"/><path class="cls-12" d="M384.26,440.21h2.59c-.12.76,0,1.62-.41,2.11a1.77,1.77,0,0,1-1.76,0C384.3,441.89,384.4,441,384.26,440.21Z"/><path class="cls-12" d="M390,442.36v-2.09h2.25C392.6,442.56,392.45,442.7,390,442.36Z"/><path class="cls-12" d="M392.58,440.21h2.6c-.11.75,0,1.61-.39,2.1a1.78,1.78,0,0,1-1.77,0C392.63,441.9,392.72,441,392.58,440.21Z"/><path class="cls-12" d="M398.14,440.24c-.13.76,0,1.63-.43,2.06a1.79,1.79,0,0,1-1.79,0c-.4-.42-.32-1.3-.47-2.07Z"/><path class="cls-12" d="M403.51,440.22h2.67c-.09.74,0,1.61-.33,2.06a1.78,1.78,0,0,1-1.78.05C403.65,441.93,403.7,441.06,403.51,440.22Z"/><path class="cls-12" d="M409,440.25c.17,2.37.17,2.37-2.31,2.16v-2.16Z"/><path class="cls-12" d="M409.23,440.18h2.59c-.12.78,0,1.65-.4,2.14a1.77,1.77,0,0,1-1.76,0C409.27,441.89,409.37,441,409.23,440.18Z"/><path class="cls-12" d="M415,442.37v-2.1h2.23C417.6,442.52,417.44,442.67,415,442.37Z"/><path class="cls-12" d="M417.51,440.23h2.64c-.09.74,0,1.6-.34,2a1.77,1.77,0,0,1-1.77.07C417.64,441.95,417.69,441.08,417.51,440.23Z"/><path class="cls-12" d="M525.66,440.24H528v2.16h-2.33Z"/><path class="cls-12" d="M370.09,442.9V445h-2.28V442.9Z"/><path class="cls-12" d="M370.63,445V443c2.2-.71,2.62-.37,2.32,1.92Z"/><path class="cls-12" d="M381.37,445H379v-2C381.29,442.42,381.62,442.67,381.37,445Z"/><path class="cls-12" d="M428.12,434.34v2.32h-2C425.72,434.35,425.9,434.12,428.12,434.34Z"/><path class="cls-12" d="M544.53,395.73c0,.46,0,.86,0,1.26s0,.63-.06,1h-2C542,395.61,542.13,395.45,544.53,395.73Z"/><path class="cls-12" d="M431,436.75h-1.41c-.19,0-.39,0-.64,0V434.4C431.09,434,431.25,434.22,431,436.75Z"/><path class="cls-12" d="M539,409.46v2.23h-2C536.57,409.36,536.89,409,539,409.46Z"/><path class="cls-12" d="M420.66,434.37c2.14-.3,2.3-.13,2,2.33l-.93,0h-1.07Z"/><path class="cls-12" d="M536.87,428.73h2c.58,2.09.2,2.59-2,2.38v-2.38Z"/><path class="cls-12" d="M365,423v-2.12h2.14V423Z"/><path class="cls-12" d="M375.67,423h-2.1v-2.14h2.1Z"/><path class="cls-12" d="M376.3,423v-2.13h2.1V423Z"/><path class="cls-12" d="M536.74,398.6h2.42a6.71,6.71,0,0,1-.43,2.14,1.68,1.68,0,0,1-1.54,0A6.26,6.26,0,0,1,536.74,398.6Z"/><path class="cls-12" d="M539.59,398.61h2.08v2.1C539.49,401.11,539.46,401.08,539.59,398.61Z"/><path class="cls-12" d="M400.66,431.14h-2.11v-2.23h2.11Z"/><path class="cls-12" d="M539,406.17h-2V404h2Z"/><path class="cls-12" d="M539.59,406.16V404h2.09v2.13Z"/><path class="cls-12" d="M387.34,428.9h2.07v2.19h-2.07Z"/><path class="cls-12" d="M542.37,406.68h1.91c-.11,2.65-.11,2.65-1.91,2.31Z"/><path class="cls-12" d="M387.25,422.94c0-.48,0-.92,0-1.36,0-.23,0-.47.06-.76h2.07v2.12Z"/><path class="cls-12" d="M542.43,398.62h2v2.06C542.3,401.15,542.07,400.92,542.43,398.62Z"/><path class="cls-12" d="M398.52,423v-2.13h2.14V423Z"/><path class="cls-12" d="M376.3,444.93v-2h2.1v2Z"/><path class="cls-12" d="M364.43,442.89v2.05h-2.07v-2.05Z"/><path class="cls-12" d="M398.52,442.38v-2.14h2.14v2.14Z"/><path class="cls-12" d="M528.64,437.26h2v2.19h-2Z"/><path class="cls-12" d="M401.05,428.91h2v2.2h-2Z"/><path class="cls-12" d="M401.07,420.82h2V423h-2Z"/><path class="cls-12" d="M412.27,423v-2.12h2.11V423Z"/><path class="cls-12" d="M420.64,420.81h2.06V423h-2.06Z"/><path class="cls-12" d="M403.13,440.25v2.16h-2.06v-2.16Z"/><path class="cls-12" d="M373.53,445v-2.06h2.14V445Z"/><path class="cls-12" d="M423.27,420.81h2.1V423h-2.1Z"/><path class="cls-12" d="M428.09,423h-2v-2.14h2Z"/><path class="cls-12" d="M367.16,431.14h-2.1v-2.24h2.1Z"/><path class="cls-12" d="M378.37,431.15h-2.05V428.9h2.05Z"/><path class="cls-12" d="M414.38,440.26v2.15h-2.1v-2.15Z"/><path class="cls-12" d="M429,420.82h2V423h-2Z"/><path class="cls-12" d="M420.62,431.14v-2.22h2.09v2.22Z"/><path class="cls-12" d="M373.55,428.9h2.15v2.19h-2.15Z"/><path class="cls-12" d="M422.71,440.26c.17,2.39.1,2.46-2.08,2.08v-2.08Z"/><path class="cls-12" d="M362.28,423c0-.47,0-.87,0-1.26s0-.55,0-.89h2.08V423Z"/><path class="cls-12" d="M431,445h-2v-2C431.12,442.54,431.23,442.64,431,445Z"/><path class="cls-12" d="M428.06,445h-2v-2.06h2Z"/><path class="cls-12" d="M425.38,442.41h-2.13v-2.16h2.13Z"/><path class="cls-12" d="M428.11,440.25v2.09c-2.18.36-2.31.23-2-2.09Z"/><path class="cls-12" d="M423.26,442.87h2.13V445h-2.13Z"/><path class="cls-12" d="M431,440.27c.22,2.32.15,2.4-2.06,2.09,0-.34,0-.69-.06-1s0-.64,0-1Z"/><path class="cls-12" d="M367.2,442.91v2h-2.11v-2Z"/><path class="cls-12" d="M420.63,442.95c2.18-.36,2.3-.24,2,2h-2Z"/><path class="cls-12" d="M412.28,445V442.9h2.09V445Z"/><path class="cls-12" d="M412.29,431.11V428.9h2.07v2.21Z"/><path class="cls-12" d="M423.26,428.9h2.14v2.23h-2.14Z"/><path class="cls-12" d="M403.14,445h-2.07v-2.1h2.07Z"/><path class="cls-12" d="M398.53,442.87h2.13V445h-2.13Z"/><path class="cls-12" d="M362.34,440.22h2.07v2.19h-2.07Z"/><path class="cls-12" d="M365,442.39v-2.15h2.15v2.15Z"/><path class="cls-12" d="M362.34,428.89h2.08v2.23h-2.08Z"/><path class="cls-12" d="M387.33,442.88h2.08v2.07h-2.08Z"/><path class="cls-12" d="M375.72,440.24v2.13h-2.14v-2.13Z"/><path class="cls-12" d="M378.4,442.43h-2.07v-2.18h2.07Z"/><path class="cls-12" d="M426.08,428.91h2v2.21h-2Z"/><path class="cls-12" d="M528.58,442.39v-2.11h2.08v2.11Z"/><path class="cls-12" d="M429,428.9h2v2.21h-2Z"/><path class="cls-12" d="M389.4,442.42h-2.06v-2.18h2.06Z"/><path class="cls-12" d="M539.58,414.45v-2.11h2.11v2.11Z"/><path class="cls-12" d="M539,414.49h-2v-2.14h2Z"/><path class="cls-12" d="M386.74,423.61v1.81h-2.27v-1.81Z"/><path class="cls-12" d="M381.37,425.45H379V423.6h2.34Z"/><path class="cls-12" d="M370.09,439.45h-2.3v-1.94h2.3Z"/><path class="cls-12" d="M373,439.47h-2.29v-2H373Z"/><path class="cls-12" d="M379,437.46h2.36v2H379Z"/><path class="cls-12" d="M383.94,439.46h-2.3v-2h2.3Z"/><path class="cls-12" d="M384.43,439.44v-2h2.27v2Z"/><path class="cls-12" d="M392.31,437.48v2H390v-2Z"/><path class="cls-12" d="M392.78,437.48H395v2h-2.27Z"/><path class="cls-12" d="M395.63,439.43v-1.95h2.31v1.95Z"/><path class="cls-12" d="M406.65,437.48H409v1.94h-2.31Z"/><path class="cls-12" d="M409.45,437.45h2.22v2h-2.22Z"/><path class="cls-12" d="M417.25,439.48H415v-2h2.23Z"/><path class="cls-12" d="M420,437.48v2h-2.28v-2Z"/><path class="cls-12" d="M370.66,425.42v-1.81H373v1.81Z"/><path class="cls-12" d="M417.72,425.41v-1.8H420v1.8Z"/><path class="cls-12" d="M403.73,439.43v-1.95H406v1.95Z"/><path class="cls-12" d="M415,423.59h2.27v1.8H415Z"/><path class="cls-12" d="M409.44,423.57h2.22v1.84h-2.22Z"/><path class="cls-12" d="M408.92,425.44h-2.31v-1.85h2.31Z"/><path class="cls-12" d="M406.08,423.62v1.79h-2.34v-1.79Z"/><path class="cls-12" d="M398,425.43h-2.32v-1.81H398Z"/><path class="cls-12" d="M367.82,423.56h2.23v1.85h-2.23Z"/><path class="cls-12" d="M395.1,423.62v1.77h-2.33v-1.77Z"/><path class="cls-12" d="M370.08,447.53h-2.29v-1.94h2.29Z"/><path class="cls-12" d="M370.66,447.51v-2H373v2Z"/><path class="cls-12" d="M379,445.54h2.34v2H379Z"/><path class="cls-12" d="M384,445.58v2h-2.31v-2Z"/><path class="cls-12" d="M386.72,447.53h-2.28v-1.94h2.28Z"/><path class="cls-12" d="M392.3,445.55v2H390v-2Z"/><path class="cls-12" d="M395.07,445.58v1.93h-2.31v-1.93Z"/><path class="cls-12" d="M397.95,447.55h-2.29v-2h2.29Z"/><path class="cls-12" d="M403.72,447.53v-2h2.33v2Z"/><path class="cls-12" d="M406.6,447.53v-2h2.35v2Z"/><path class="cls-12" d="M411.7,445.56v2h-2.27v-2Z"/><path class="cls-12" d="M415,447.53v-2h2.27v2Z"/><path class="cls-12" d="M420,445.59v1.91h-2.29v-1.91Z"/><path class="cls-12" d="M390,423.56h2.22v1.85H390Z"/><path class="cls-12" d="M381.62,423.58H384v1.84h-2.34Z"/><path class="cls-12" d="M542.41,406.15c-.3-2.28-.3-2.28,2-2.16v2.16Z"/><path class="cls-12" d="M403.1,439.47h-2v-2h2Z"/><path class="cls-12" d="M398.51,439.43V437.5h2.14v1.94Z"/><path class="cls-12" d="M367.21,437.5v1.94h-2.14V437.5Z"/><path class="cls-12" d="M364.41,439.46h-2.07v-1.95h2.07Z"/><path class="cls-12" d="M389.41,425.44h-2.08V423.6h2.08Z"/><path class="cls-12" d="M412.29,423.58h2.08v1.84h-2.08Z"/><path class="cls-12" d="M367.24,423.62v1.77H365v-1.77Z"/><path class="cls-12" d="M364.45,445.59v1.93h-2.1v-1.93Z"/><path class="cls-12" d="M365,445.56h2.15v1.94H365Z"/><path class="cls-12" d="M422.71,425.43h-2.05V423.6h2.05Z"/><path class="cls-12" d="M431,425.43H429V423.6H431Z"/><path class="cls-12" d="M375.71,445.57v2h-2.14v-2Z"/><path class="cls-12" d="M376.31,445.54h2.07v2h-2.07Z"/><path class="cls-12" d="M539,423.61v1.86h-2.08v-1.86Z"/><path class="cls-12" d="M414.39,437.5v2h-2.06v-2Z"/><path class="cls-12" d="M423.24,425.41v-1.8h2.14v1.8Z"/><path class="cls-12" d="M387.33,445.56h2.08v1.95h-2.08Z"/><path class="cls-12" d="M373.53,425.42V423.6h2.15v1.82Z"/><path class="cls-12" d="M376.34,423.58h2.06v1.81h-2.06Z"/><path class="cls-12" d="M403.18,423.62v1.77h-2.11v-1.77Z"/><path class="cls-12" d="M400.68,445.58v1.93h-2.12v-1.93Z"/><path class="cls-12" d="M403.12,447.57h-2v-2h2Z"/><path class="cls-12" d="M428.94,439.46v-2H431v2Z"/><path class="cls-12" d="M426.05,439.43V437.5h2v1.93Z"/><path class="cls-12" d="M425.39,439.47h-2.11v-2h2.11Z"/><path class="cls-12" d="M412.29,445.54h2.08v2h-2.08Z"/><path class="cls-12" d="M398.51,425.42v-1.83h2.15v1.83Z"/><path class="cls-12" d="M426.07,423.59h2v1.84h-2Z"/><path class="cls-12" d="M422.68,447.54h-2.05v-1.95h2.05Z"/><path class="cls-12" d="M423.25,447.5v-1.92h2.11v1.92Z"/><path class="cls-12" d="M426.08,445.52h2v2h-2Z"/><path class="cls-12" d="M429,445.56H431v1.95H429Z"/><path class="cls-12" d="M420.63,439.43v-2h2.05v2Z"/><path class="cls-12" d="M364.43,425.43h-2.06V423.6h2.06Z"/><path class="cls-12" d="M389.42,437.47v2h-2.1v-2Z"/><path class="cls-12" d="M378.4,439.46h-2.07v-2h2.07Z"/><path class="cls-12" d="M373.54,439.43c0-.3-.05-.53-.06-.77s0-.71,0-1.16h2.19v1.93Z"/><path class="cls-12" d="M517.57,450.41v-2.09h1.81C519.78,450.13,519.48,450.48,517.57,450.41Z"/><path class="cls-12" d="M542.43,411.67c-.38-2.16-.21-2.44,1.45-2.32v2.32Z"/><path class="cls-12" d="M539.29,423.57h2.2c-.32.83.13,2.13-1.33,2C538.85,425.39,540,424.27,539.29,423.57Z"/><path class="cls-12" d="M537,431.66c.35,0,.63,0,.91,0a6.3,6.3,0,0,1,.64.07c-.27.95-.32,2-1.55,2.5Z"/><path class="cls-12" d="M542.36,414.45v-2.13h1.23C543.82,414,543.54,414.51,542.36,414.45Z"/><path class="cls-12" d="M512,452.36c-.22-1.49-.05-1.59,2.13-1.38C514.33,451.9,514.33,451.9,512,452.36Z"/><path class="cls-12" d="M531.29,389.69v-1.18h2.26C533.7,389.84,533.53,389.93,531.29,389.69Z"/><path class="cls-12" d="M534,388.57h2.3c.21.79.13,1.29-.84,1.23C534.74,389.74,533.75,390,534,388.57Z"/><path class="cls-12" d="M539.59,389.69v-1.13a8.52,8.52,0,0,1,1.82,0c.21,0,.3.6.52,1.08Z"/><path class="cls-12" d="M530.69,389.73h-2.06v-1.22h2.06Z"/><path class="cls-12" d="M531.29,442.53v-2.26h2Z"/><path class="cls-12" d="M536.64,388.56H539v1.19a5.83,5.83,0,0,1-1.66,0C537.07,389.62,536.94,389.08,536.64,388.56Z"/><path class="cls-12" d="M528.64,442.88h2.23l-2.23,2.05Z"/><path class="cls-12" d="M520,448.33h2.33l.13.33L520,449.83Z"/><path class="cls-12" d="M542.32,417.46a18.79,18.79,0,0,1,0-2.23c0-.14.56-.22,1.2-.45l-.65,2.69Z"/><path class="cls-12" d="M540.84,426l-1,2.54C539.22,426.47,539.43,425.94,540.84,426Z"/><path class="cls-12" d="M534.24,439.14c-.34-2-.34-2,1.27-1.76Z"/><path class="cls-12" d="M525.74,446.69c-.12-1.48-.07-1.51,1.94-1.23Z"/><path class="cls-12" d="M542.41,388.7l2.2.8C542.76,390,542.47,389.91,542.41,388.7Z"/></svg>